HIERARCHY
ROOT Hips
{
	OFFSET 32.680599 13.923883 98.611801
	CHANNELS 6 Xposition Yposition Zposition Xrotation Yrotation Zrotation
	JOINT spine
	{
		OFFSET 0.000000 -0.477352 8.301041
		CHANNELS 3 Xrotation Yrotation Zrotation
		JOINT spine1
		{
			OFFSET 0.000000 -0.000002 10.456497
			CHANNELS 3 Xrotation Yrotation Zrotation
			JOINT spine2
			{
				OFFSET 0.000000 -0.000002 10.019203
				CHANNELS 3 Xrotation Yrotation Zrotation
				JOINT Neck
				{
					OFFSET 0.000000 -1.226414 25.723503
					CHANNELS 3 Xrotation Yrotation Zrotation
					JOINT Head
					{
						OFFSET 0.000000 -0.000001 7.771744
						CHANNELS 3 Xrotation Yrotation Zrotation
						End Site
						{
							OFFSET 0.000000 6.203937 18.811996
						}
					}
				}
				JOINT RightShoulder
				{
					OFFSET -4.218800 0.587437 10.820000
					CHANNELS 3 Xrotation Yrotation Zrotation
					JOINT RightArm
					{
						OFFSET 0.000000 -0.000002 14.191406
						CHANNELS 3 Xrotation Yrotation Zrotation
						JOINT RightArmRoll
						{
							OFFSET 0.000000 -0.000001 7.164078
							CHANNELS 3 Xrotation Yrotation Zrotation
							JOINT RightForeArm
							{
								OFFSET 0.000000 -0.000004 20.866501
								CHANNELS 3 Xrotation Yrotation Zrotation
								JOINT RightForeArmRoll
								{
									OFFSET 0.000000 -0.000001 8.039215
									CHANNELS 3 Xrotation Yrotation Zrotation
									JOINT RightHand
									{
										OFFSET 0.000000 -0.000003 16.132996
										CHANNELS 3 Xrotation Yrotation Zrotation
										End Site
										{
											OFFSET 0.000000 0.000000 0.100006
										}
									}
								}
							}
						}
					}
				}
				JOINT LeftShoulder
				{
					OFFSET 4.218800 0.587437 10.820000
					CHANNELS 3 Xrotation Yrotation Zrotation
					JOINT LeftArm
					{
						OFFSET 0.000000 -0.000002 14.191406
						CHANNELS 3 Xrotation Yrotation Zrotation
						JOINT LeftArmRoll
						{
							OFFSET 0.000000 -0.000001 7.164093
							CHANNELS 3 Xrotation Yrotation Zrotation
							JOINT LeftForeArm
							{
								OFFSET 0.000000 -0.000004 20.866501
								CHANNELS 3 Xrotation Yrotation Zrotation
								JOINT LeftForeArmRoll
								{
									OFFSET 0.000000 -0.000001 8.039215
									CHANNELS 3 Xrotation Yrotation Zrotation
									JOINT LeftHand
									{
										OFFSET 0.000000 -0.000003 16.132996
										CHANNELS 3 Xrotation Yrotation Zrotation
										End Site
										{
											OFFSET 0.000000 0.000000 0.100006
										}
									}
								}
							}
						}
					}
				}
			}
		}
	}
	JOINT RightUpLeg
	{
		OFFSET -7.357731 1.131820 -1.349213
		CHANNELS 3 Xrotation Yrotation Zrotation
		JOINT RightUpLegRoll
		{
			OFFSET 0.000000 -0.000003 18.916801
			CHANNELS 3 Xrotation Yrotation Zrotation
			JOINT RightLeg
			{
				OFFSET 0.000000 0.000004 -23.425598
				CHANNELS 3 Xrotation Yrotation Zrotation
				JOINT RightLegRoll
				{
					OFFSET 0.000000 -0.000004 23.502296
					CHANNELS 3 Xrotation Yrotation Zrotation
					JOINT RightFoot
					{
						OFFSET 0.000000 -0.000003 19.561707
						CHANNELS 3 Xrotation Yrotation Zrotation
						JOINT RightToeBase
						{
							OFFSET 0.000000 -0.000003 16.352600
							CHANNELS 3 Xrotation Yrotation Zrotation
							End Site
							{
								OFFSET 0.006931 0.912836 7.919434
							}
						}
					}
				}
			}
		}
	}
	JOINT LeftUpLeg
	{
		OFFSET 7.357731 1.131820 -1.349213
		CHANNELS 3 Xrotation Yrotation Zrotation
		JOINT LeftUpLegRoll
		{
			OFFSET 0.000000 -0.000003 18.916901
			CHANNELS 3 Xrotation Yrotation Zrotation
			JOINT LeftLeg
			{
				OFFSET 0.000000 -0.000004 23.425507
				CHANNELS 3 Xrotation Yrotation Zrotation
				JOINT LeftLegRoll
				{
					OFFSET 0.000000 -0.000004 23.719498
					CHANNELS 3 Xrotation Yrotation Zrotation
					JOINT LeftFoot
					{
						OFFSET 0.000000 -0.000003 19.344406
						CHANNELS 3 Xrotation Yrotation Zrotation
						JOINT LeftToeBase
						{
							OFFSET 0.000000 -0.000003 16.352600
							CHANNELS 3 Xrotation Yrotation Zrotation
							End Site
							{
								OFFSET -0.031063 0.912836 7.919434
							}
						}
					}
				}
			}
		}
	}
}
MOTION
Frames: 5
Frame Time: 0.041667
31.364098 14.707287 104.799004 -5.577128 -0.762538 0.811992 -1.307062 -0.138881 0.472187 1.389918 -0.283865 0.942496 3.034904 -0.272555 0.945830 22.057930 -6.553655 -0.119896 -11.429750 7.208739 -0.364923 -13.362533 -44.599158 -15.208277 -133.134689 -153.120178 -95.376789 0.000001 0.000003 -0.000001 65.342446 5.426946 2.467363 0.000001 0.000001 -3.000000 -5.000209 -7.998724 0.000171 -8.012303 45.949278 8.438110 -139.310000 144.932338 103.485842 -0.000000 0.000009 0.000002 58.060597 -1.583920 0.650938 0.000000 -0.000001 3.008429 -5.000238 7.998741 -0.000147 0.778321 -163.056478 7.958436 -179.999991 0.000006 -1.554996 165.131325 -1.420801 -1.085169 -0.000002 0.000001 0.102469 66.552475 6.914215 2.235726 25.456860 -7.355613 -0.000015 -3.809571 164.932854 -4.259492 -0.000006 -0.000005 -1.512540 -18.896830 0.380123 0.983712 -0.000001 0.000002 -0.137478 66.427579 -6.983504 -2.075205 25.456952 7.355615 0.000009 
31.333199 14.567184 105.019997 -5.570928 -0.748971 0.827193 -1.305882 -0.138950 0.470151 1.392267 -0.283969 0.938424 3.037254 -0.272708 0.941758 22.040594 -6.711999 -0.093556 -11.470299 7.322299 -0.340977 -13.357198 -44.948935 -15.217622 -133.248822 -152.538587 -95.549265 0.000001 0.000004 0.000002 64.915047 5.338421 2.412072 -0.000002 -0.000000 -2.999999 -5.000209 -7.998721 0.000169 -7.904806 46.089133 8.313622 -139.410404 144.258950 103.743429 -0.000001 0.000006 -0.000001 57.784766 -1.517418 0.667758 -0.000000 -0.000006 3.008409 -5.000240 7.998749 -0.000147 0.785107 -163.248488 7.895606 -179.999991 0.000005 -1.544998 165.175790 -1.501337 -1.088302 -0.000002 0.000001 0.105853 66.593170 6.912460 2.237598 25.456854 -7.355610 -0.000017 -3.762815 165.107734 -4.187415 -0.000004 -0.000005 -1.506510 -18.798921 0.419697 0.986360 -0.000002 0.000001 -0.139329 66.446594 -6.980444 -2.081353 25.456952 7.355613 0.000009 
31.342400 14.652083 105.195999 -5.565719 -0.733713 0.844832 -1.304852 -0.139308 0.468016 1.394318 -0.284648 0.934151 3.039305 -0.273438 0.937494 22.025248 -6.870544 -0.069337 -11.509624 7.436769 -0.319320 -13.351172 -45.299635 -15.226107 -133.361984 -151.966846 -95.716523 0.000001 0.000002 0.000000 64.473489 5.252663 2.360228 -0.000001 -0.000002 -3.000001 -5.000208 -7.998721 0.000171 -7.792356 46.226836 8.182872 -139.507843 143.587433 104.004499 -0.000000 0.000009 0.000003 57.488111 -1.450915 0.684222 0.000001 -0.000007 3.008389 -5.000240 7.998741 -0.000146 0.788091 -163.445471 7.830248 -179.999991 0.000006 -1.534998 165.200638 -1.579820 -1.092321 -0.000002 0.000001 0.109781 66.639874 6.910845 2.238821 25.456851 -7.355616 -0.000017 -3.719613 165.282710 -4.114947 -0.000004 -0.000006 -1.500830 -18.714017 0.457426 0.989125 -0.000002 0.000002 -0.141537 66.465834 -6.977829 -2.086384 25.456953 7.355613 -0.000002 
31.363897 14.608584 105.398003 -5.561296 -0.717074 0.864075 -1.303981 -0.139985 0.465860 1.396058 -0.285967 0.929833 3.041045 -0.274809 0.933192 22.010747 -7.026587 -0.047453 -11.546566 7.550014 -0.300031 -13.344570 -45.648903 -15.233697 -133.472538 -151.404489 -95.876076 0.000002 0.000002 0.000001 64.017437 5.170411 2.311326 -0.000001 -0.000003 -3.000001 -5.000210 -7.998724 0.000173 -7.676611 46.363744 8.048055 -139.602783 142.919769 104.267605 -0.000001 0.000009 -0.000001 57.172327 -1.384771 0.700378 -0.000000 -0.000003 3.008370 -5.000238 7.998742 -0.000148 0.787630 -163.644461 7.762554 -179.999991 0.000007 -1.524001 165.209271 -1.658206 -1.097756 -0.000002 -0.000000 0.114147 66.691866 6.909427 2.239155 25.456853 -7.355611 -0.000017 -3.679546 165.456756 -4.042202 -0.000005 -0.000004 -1.495471 -18.640416 0.493794 0.992058 -0.000001 0.000001 -0.144042 66.484986 -6.975624 -2.090504 25.456953 7.355613 -0.000001 
31.357199 14.638882 105.584007 -5.557453 -0.699369 0.884086 -1.303272 -0.141012 0.463759 1.397478 -0.287991 0.925619 3.042476 -0.276882 0.929001 21.996042 -7.177389 -0.028083 -11.579844 7.659909 -0.283216 -13.337590 -45.994730 -15.240479 -133.578419 -150.850957 -96.024803 0.000001 0.000004 0.000005 63.546871 5.092444 2.265058 -0.000002 -0.000003 -3.000001 -5.000210 -7.998723 0.000175 -7.559170 46.500847 7.911295 -139.695591 142.257855 104.531264 -0.000000 0.000008 0.000001 56.838932 -1.319350 0.716223 0.000001 -0.000007 3.008360 -5.000238 7.998745 -0.000146 0.784074 -163.846430 7.692629 -179.999991 0.000007 -1.513004 165.204463 -1.734554 -1.104059 -0.000003 0.000001 0.118853 66.748297 6.908127 2.238934 25.456856 -7.355608 -0.000018 -3.642120 165.631869 -3.969497 -0.000005 -0.000005 -1.490400 -18.576124 0.529293 0.995197 -0.000001 0.000002 -0.146775 66.504131 -6.973798 -2.093606 25.456953 7.355613 0.000000 
